<svg xmlns="http://www.w3.org/2000/svg" xmlns:xlink="http://www.w3.org/1999/xlink" id="Layer_1" x="0px" y="0px" viewBox="0 0 1200 1200" xml:space="preserve"><g>	<g>		<path fill="none" d="M396.918,491.318c-7.889,1.302-11.829,4.807-11.829,10.525c0,3.006,0.981,5.385,2.959,7.137   c1.97,1.762,4.93,3.436,8.87,5.042V491.318z"></path>		<path fill="none" d="M591.384,568.727v86.635c0,0,61.913,2.548,61.913,43.317c0,0,70.32-2.372,91.304,33.27v-29.063   c-1.11-5.956-12.327-55.344-78.672-55.344c-4.417,0-7.997-3.58-7.997-7.997s3.58-7.997,7.997-7.997   c41.841,0,65.484,17.41,78.672,34.799v-26.114c-1.11-5.956-12.327-55.344-78.672-55.344c-4.417,0-7.997-3.58-7.997-7.997   c0-4.417,3.58-7.997,7.997-7.997c41.841,0,65.484,17.41,78.672,34.799v-26.314c0-10.613-1.509-20.166-4.359-28.721   c-13.811-10.938-41.01-25.795-86.944-25.795C653.297,545.795,639.838,568.727,591.384,568.727z"></path>		<path fill="none" d="M415.707,551.471c0-3.407-0.963-6.168-2.881-8.273c-1.926-2.105-4.658-3.965-8.212-5.561v26.16   C412.012,562.3,415.707,558.188,415.707,551.471z"></path>		<path fill="none" d="M774.574,159.857v-43.021c0-9.114-7.416-16.529-16.529-16.529H245.727c-9.112,0-16.529,7.415-16.529,16.529   v43.021H774.574z"></path>		<path fill="none" d="M1071.815,394.923c0,3.006,0.981,5.385,2.959,7.137c1.97,1.762,4.929,3.436,8.87,5.042v-22.704   C1075.755,385.7,1071.815,389.205,1071.815,394.923z"></path>		<path fill="none" d="M672.208,736.618c-6.529,0-12.735,0.01-18.679,0.027c7.749,10.274,12.398,23.018,12.398,36.878   c0,33.896-27.478,61.374-61.374,61.374c-33.896,0-61.374-27.478-61.374-61.374c0-13.351,4.31-25.669,11.549-35.742   c-1.448-0.307-2.796-0.989-3.883-2.036c-1.568-1.507-2.452-3.588-2.452-5.762V680.79H305.116c0,0,2.915,48.901-50.05,50.344   c0,30.035,0,96.959,0,96.959s50.05-9.142,50.05,41.917c65.106,0,357.127,0,417.328,0c14.678-14.336,22.157-34.831,22.157-60.999   C744.588,806.071,743.47,736.618,672.208,736.618z M474.637,813.261H364.376c-4.417,0-7.997-3.58-7.997-7.997   s3.58-7.997,7.997-7.997h110.261c4.417,0,7.997,3.58,7.997,7.997S479.054,813.261,474.637,813.261z M474.637,755.741H364.376   c-4.417,0-7.997-3.58-7.997-7.997s3.58-7.997,7.997-7.997h110.261c4.417,0,7.997,3.58,7.997,7.997   S479.054,755.741,474.637,755.741z"></path>		<path fill="none" d="M1091.339,456.878c7.398-1.498,11.093-5.61,11.093-12.326c0-3.407-0.963-6.168-2.881-8.273   c-1.926-2.105-4.658-3.965-8.212-5.561V456.878z"></path>		<path fill="none" d="M638.141,243.955H229.199v129.04c0,9.114,7.416,16.529,16.529,16.529h512.318   c9.112,0,16.529-7.415,16.529-16.529V236.159H646.118C646.009,240.481,642.49,243.955,638.141,243.955z M364.376,330.578h-71.475   c-4.417,0-7.997-3.58-7.997-7.997c0-4.417,3.58-7.997,7.997-7.997h71.475c4.417,0,7.997,3.58,7.997,7.997   C372.373,326.998,368.793,330.578,364.376,330.578z M522.636,330.578h-71.475c-4.417,0-7.997-3.58-7.997-7.997   c0-4.417,3.58-7.997,7.997-7.997h71.475c4.417,0,7.997,3.58,7.997,7.997C530.633,326.998,527.053,330.578,522.636,330.578z"></path>		<path fill="none" d="M763.879,938.325c0,3.006,0.98,5.385,2.959,7.137c1.97,1.762,4.93,3.436,8.869,5.042V927.8   C767.819,929.102,763.879,932.608,763.879,938.325z"></path>		<path fill="none" d="M783.403,974.12v26.16c7.398-1.498,11.092-5.61,11.092-12.326c0-3.407-0.962-6.168-2.88-8.273   C789.689,977.576,786.957,975.716,783.403,974.12z"></path>		<path fill="#FFC355" d="M604.553,834.897c33.897,0,61.374-27.478,61.374-61.374c0-13.86-4.649-26.604-12.398-36.878   c-66.22,0.186-96.51,1.318-96.834,1.329c-0.672,0.027-1.326-0.057-1.968-0.193c-7.239,10.073-11.549,22.391-11.549,35.742   C543.178,807.419,570.657,834.897,604.553,834.897z"></path>		<path fill="#FFC355" d="M255.066,828.093c0,0,0-66.924,0-96.959c52.965-1.443,50.05-50.344,50.05-50.344h243.276v-22.541H229.199   v235.418h425.293c0.147,0,0.297,0.005,0.444,0.012c0.378,0.025,40.739,1.818,66.861-22.978c0.23-0.218,0.421-0.47,0.647-0.692   c-60.201,0-352.222,0-417.328,0C305.116,818.951,255.066,828.093,255.066,828.093z"></path>		<path fill="#FFC355" d="M564.386,721.739c14.801-0.395,49.748-1.115,107.821-1.115c38.386,0,60.107,16.892,72.393,35.906v-24.581   c-20.983-35.642-91.304-33.27-91.304-33.27c0-40.769-61.913-43.317-61.913-43.317v-86.635c48.454,0,61.913-22.932,61.913-45.865   c45.934,0,73.133,14.856,86.944,25.795c-3.417-10.255-8.795-19.051-16.249-26.195c-25.469-24.405-66.045-22.976-66.433-22.953   c-0.112,0.005-0.228,0.008-0.341,0.008h-92.833V721.739z"></path>		<path fill="#FFC355" d="M229.199,227.961h408.943c4.417,0,7.997,3.58,7.997,7.997c0,0.069-0.019,0.133-0.02,0.201h128.456v-76.303   H229.199V227.961z"></path>		<path fill="#272844" d="M1145.077,618.193c-6.013-13.169-23.57-20.699-39.951-17.128c-4.323,0.94-14.176,4.092-21.93,13.978   c-5.726-16.333-15.638-26.881-27.562-27.382c-9.825-0.423-22.458,0.686-32.667,11.221c-5.033-12.799-14.595-24.71-31.12-25.357   c-6.96-0.28-16.516,0.048-24.554,4.964V451.327c-0.066-12.897-7.95-37.285-37.324-37.285c-29.174,0-37.852,25.78-38.371,39.712   v198.647c-3.602-6.958-7.997-13.267-13.367-18.417c-8.188-7.858-19.571-10.257-30.411-6.415   c-11.215,3.966-19.106,13.719-20.596,25.45c-5.714,45.082-4.177,132.48,1.184,167.322c5.76,37.429,64.629,85.688,96.472,109.337   h27.515c-28.869-19.627-102.78-76.677-108.18-111.769c-5.098-33.157-6.588-119.75-1.122-162.878   c0.862-6.813,5.764-10.863,10.059-12.385c2.421-0.856,8.625-2.285,14.008,2.88c20.315,19.485,23.913,62.793,24.438,83.292v11.501   c0,4.35,3.477,7.903,7.828,7.996c4.28,0.102,7.972-3.31,8.16-7.655c0.031-0.758,0.219-5.728,0.006-13.25V453.953   c0.169-3.036,2.071-23.917,22.376-23.917c19.946,0,21.267,17.844,21.33,21.332v171.638h15.994v-3.282   c0-13.419,2.087-21.95,6.379-26.078c3.293-3.163,8.853-4.47,17.55-4.139c17.869,0.7,20.374,30.514,20.396,30.798   c0.272,3.746,3.115,6.798,6.832,7.335c3.711,0.533,7.313-1.589,8.631-5.104c6.176-16.454,15.273-19.431,27.878-18.896   c7.207,0.305,17.616,18.715,17.563,46.026c-0.019,0.754-0.028,1.518-0.028,2.298c0,4.383,3.527,7.949,7.91,7.997   c0.031,0,0.059,0,0.091,0c4.342,0,7.897-3.471,7.991-7.824c0.019-0.75,0.028-1.498,0.031-2.241   c0.497-18.476,7.729-30.53,20.009-33.201c9.931-2.163,19.412,2.462,22.005,8.146c6.726,14.723,1.878,130.793,0.053,174.488   c-0.3,7.205-0.569,13.6-0.772,18.893c-1.506,39.15-45.016,99.401-54.012,111.458h19.773   c16.115-22.838,48.786-73.513,50.221-110.842c0.203-5.279,0.469-11.657,0.772-18.84   C1150.781,698.997,1152.003,633.355,1145.077,618.193z"></path>		<path fill="#FFC355" d="M1075.799,929.678H952.396H924.88h-35.623c-6.908,0-12.507,5.6-12.507,12.507v91.403   c0,6.907,5.6,12.507,12.507,12.507h238.865c6.908,0,12.507-5.599,12.507-12.507v-91.403c0-6.907-5.6-12.507-12.507-12.507h-32.55   H1075.799z M1101.858,967.477c0,4.417-3.58,7.997-7.997,7.997H922.044c-4.417,0-7.997-3.58-7.997-7.997s3.58-7.997,7.997-7.997   h171.817C1098.278,959.48,1101.858,963.06,1101.858,967.477z"></path>		<path fill="#272844" d="M922.044,959.48c-4.417,0-7.997,3.58-7.997,7.997s3.58,7.997,7.997,7.997h171.817   c4.417,0,7.997-3.58,7.997-7.997s-3.58-7.997-7.997-7.997H922.044z"></path>		<path fill="#272844" d="M760.595,577.378c0-27.865-8.591-50.228-25.538-66.464c-29.671-28.434-74.249-27.518-77.988-27.392   h-100.68c-4.417,0-7.997,3.58-7.997,7.997v150.736h-327.19c-4.417,0-7.997,3.58-7.997,7.997v251.412   c0,4.417,3.58,7.997,7.997,7.997h433.09c0.497,0.022,1.571,0.061,3.133,0.061c11.377,0,48.57-2.054,75.28-27.322   c18.506-17.506,27.89-42.199,27.89-73.39V577.378z M657.56,499.508c0.387-0.023,40.964-1.453,66.433,22.953   c7.454,7.145,12.832,15.941,16.249,26.195c2.851,8.555,4.359,18.108,4.359,28.721v26.314   c-13.188-17.388-36.831-34.799-78.672-34.799c-4.417,0-7.997,3.58-7.997,7.997c0,4.417,3.58,7.997,7.997,7.997   c66.345,0,77.562,49.388,78.672,55.344v26.114c-13.188-17.388-36.831-34.799-78.672-34.799c-4.417,0-7.997,3.58-7.997,7.997   s3.58,7.997,7.997,7.997c66.345,0,77.562,49.388,78.672,55.344v29.063v24.581c-12.286-19.014-34.007-35.906-72.393-35.906   c-58.073,0-93.02,0.72-107.821,1.115V499.516h92.833C657.332,499.516,657.447,499.513,657.56,499.508z M722.444,870.01   c-0.227,0.221-0.417,0.473-0.647,0.692c-26.122,24.796-66.483,23.003-66.861,22.978c-0.147-0.008-0.297-0.012-0.444-0.012H229.199   V658.249h319.193v22.541v49.193c0,2.174,0.884,4.255,2.452,5.762c1.087,1.047,2.435,1.729,3.883,2.036   c0.642,0.136,1.296,0.221,1.968,0.193c0.324-0.012,30.613-1.143,96.834-1.329c5.944-0.017,12.15-0.027,18.679-0.027   c71.262,0,72.381,69.453,72.393,72.393C744.601,835.179,737.122,855.674,722.444,870.01z"></path>		<path fill="#272844" d="M245.727,405.518h512.318c17.934,0,32.523-14.59,32.523-32.523V116.836   c0-17.933-14.589-32.523-32.523-32.523H245.727c-17.934,0-32.523,14.59-32.523,32.523v256.159   C213.205,390.928,227.793,405.518,245.727,405.518z M245.727,100.308h512.318c9.112,0,16.529,7.415,16.529,16.529v43.021v76.303   v136.836c0,9.114-7.416,16.529-16.529,16.529H245.727c-9.112,0-16.529-7.415-16.529-16.529v-129.04h408.943   c4.348,0,7.867-3.474,7.977-7.796c0.002-0.069,0.02-0.133,0.02-0.201c0-4.417-3.58-7.997-7.997-7.997H229.199v-68.104v-43.021   C229.199,107.722,236.615,100.308,245.727,100.308z"></path>		<path fill="#272844" d="M875.226,330.578h159.419c4.417,0,7.997-3.58,7.997-7.997V199.951l56.427-73.002   c3.78-4.894,2.88-11.924-2.012-15.705c-4.898-3.785-11.927-2.88-15.707,2.01l-38.708,50.08v-0.171c0-4.417-3.58-7.997-7.997-7.997   H875.226c-4.417,0-7.997,3.58-7.997,7.997V322.58C867.229,326.998,870.809,330.578,875.226,330.578z M883.223,171.161h143.424   v12.867l-57.542,74.446l-39.939-39.937c-4.373-4.37-11.465-4.372-15.832,0.002c-4.373,4.372-4.373,11.46,0,15.833l48.933,48.931   c2.105,2.105,4.954,3.279,7.916,3.279c0.237,0,0.475-0.008,0.712-0.023c3.211-0.205,6.179-1.781,8.147-4.325l47.605-61.588v93.939   H883.223V171.161z"></path>		<path fill="#272844" d="M397.216,588.685c0.99,0.754,2.171,1.126,3.555,1.126c1.278,0,2.434-0.372,3.475-1.126   c1.033-0.754,1.549-1.625,1.549-2.634v-4.66c8.581-1.4,15.384-4.807,20.418-10.221c5.025-5.414,7.547-12.63,7.547-21.657   c0-4.817-0.77-9.076-2.294-12.787c-1.532-3.701-3.853-6.785-6.951-9.242c-3.108-2.458-5.997-4.386-8.659-5.796   c-2.662-1.4-6.015-2.849-10.06-4.357v-26.464c3.747,0.294,7.346,1.302,10.804,3.006c3.45,1.704,5.665,2.555,6.654,2.555   c2.461,0,4.387-1.175,5.77-3.534c1.375-2.36,2.066-4.641,2.066-6.844c0-3.906-2.662-6.814-7.985-8.723   c-5.323-1.899-11.093-2.957-17.309-3.153v-3.916c0-0.999-0.516-1.88-1.549-2.634c-1.042-0.744-2.198-1.126-3.475-1.126   c-1.384,0-2.565,0.382-3.555,1.126c-0.99,0.754-1.48,1.635-1.48,2.634v4.21c-8.282,1.106-15.138,4.043-20.557,8.802   c-5.429,4.758-8.142,11.602-8.142,20.531c0,3.711,0.622,7.059,1.856,10.075c1.225,3.006,2.635,5.463,4.211,7.362   c1.576,1.909,3.87,3.76,6.882,5.571c3.003,1.802,5.471,3.104,7.397,3.906c1.918,0.803,4.701,1.909,8.353,3.309v29.93   c-3.747-0.401-7.153-1.557-10.208-3.466c-3.056-1.899-5.595-3.681-7.618-5.336c-2.022-1.654-3.773-2.477-5.253-2.477   c-2.163,0-4.088,1.175-5.76,3.534c-1.681,2.35-2.522,4.68-2.522,6.991c0,4.406,3.082,8.567,9.245,12.483   c6.164,3.906,13.536,5.962,22.116,6.158v4.21C395.736,587.06,396.226,587.931,397.216,588.685z M404.614,537.637   c3.554,1.596,6.286,3.456,8.212,5.561c1.918,2.105,2.881,4.866,2.881,8.273c0,6.716-3.695,10.828-11.093,12.326V537.637z    M388.049,508.98c-1.978-1.753-2.959-4.132-2.959-7.137c0-5.718,3.94-9.223,11.829-10.525v22.704   C392.978,512.417,390.019,510.742,388.049,508.98z"></path>		<path fill="#272844" d="M1092.521,363.338c0-0.999-0.516-1.88-1.549-2.634c-1.042-0.744-2.198-1.126-3.475-1.126   c-1.384,0-2.566,0.382-3.555,1.126c-0.99,0.754-1.48,1.635-1.48,2.634v4.21c-8.282,1.106-15.138,4.043-20.557,8.802   c-5.428,4.758-8.142,11.602-8.142,20.531c0,3.711,0.622,7.059,1.856,10.075c1.225,3.006,2.635,5.463,4.211,7.362   c1.576,1.909,3.87,3.76,6.881,5.571c3.003,1.802,5.472,3.104,7.398,3.906c1.918,0.803,4.701,1.909,8.353,3.309v29.93   c-3.747-0.401-7.153-1.557-10.208-3.466c-3.056-1.9-5.595-3.681-7.618-5.336c-2.022-1.654-3.773-2.477-5.253-2.477   c-2.162,0-4.088,1.175-5.76,3.535c-1.681,2.35-2.522,4.68-2.522,6.99c0,4.406,3.082,8.567,9.245,12.483   c6.164,3.906,13.536,5.962,22.116,6.158v4.21c0,1.008,0.49,1.88,1.48,2.634c0.99,0.754,2.171,1.126,3.555,1.126   c1.278,0,2.433-0.372,3.475-1.126c1.033-0.754,1.549-1.625,1.549-2.634v-4.66c8.581-1.4,15.384-4.807,20.418-10.221   c5.025-5.414,7.547-12.63,7.547-21.657c0-4.817-0.77-9.076-2.294-12.786c-1.532-3.701-3.853-6.785-6.951-9.242   c-3.108-2.458-5.997-4.386-8.659-5.796c-2.662-1.4-6.015-2.849-10.06-4.357v-26.464c3.747,0.294,7.346,1.302,10.804,3.006   c3.45,1.703,5.665,2.555,6.654,2.555c2.46,0,4.387-1.175,5.77-3.534c1.375-2.36,2.066-4.641,2.066-6.844   c0-3.906-2.661-6.814-7.985-8.723c-5.323-1.899-11.093-2.957-17.309-3.153V363.338z M1083.644,407.102   c-3.94-1.606-6.899-3.28-8.87-5.042c-1.978-1.753-2.959-4.132-2.959-7.137c0-5.718,3.94-9.223,11.829-10.525V407.102z    M1099.551,436.278c1.918,2.105,2.881,4.866,2.881,8.273c0,6.716-3.695,10.828-11.093,12.326v-26.16   C1094.894,432.313,1097.625,434.173,1099.551,436.278z"></path>		<path fill="#272844" d="M803.303,963.967c-3.108-2.458-5.997-4.386-8.659-5.796c-2.662-1.4-6.014-2.849-10.06-4.357V927.35   c3.747,0.294,7.346,1.302,10.804,3.006c3.45,1.703,5.664,2.555,6.654,2.555c2.46,0,4.387-1.175,5.77-3.534   c1.375-2.36,2.066-4.641,2.066-6.844c0-3.906-2.662-6.814-7.985-8.723c-5.323-1.899-11.093-2.957-17.31-3.153v-3.916   c0-0.999-0.516-1.88-1.549-2.634c-1.042-0.744-2.198-1.126-3.476-1.126c-1.383,0-2.565,0.382-3.554,1.126   c-0.99,0.754-1.48,1.635-1.48,2.634v4.21c-8.282,1.106-15.138,4.044-20.558,8.802c-5.428,4.758-8.142,11.602-8.142,20.531   c0,3.711,0.622,7.059,1.856,10.074c1.226,3.006,2.636,5.463,4.212,7.363c1.576,1.909,3.87,3.76,6.881,5.571   c3.003,1.802,5.472,3.104,7.398,3.906c1.917,0.803,4.701,1.909,8.353,3.309v29.93c-3.747-0.401-7.153-1.557-10.208-3.466   c-3.056-1.9-5.595-3.681-7.618-5.336c-2.023-1.654-3.774-2.477-5.253-2.477c-2.163,0-4.089,1.175-5.761,3.534   c-1.681,2.35-2.522,4.68-2.522,6.99c0,4.406,3.083,8.567,9.246,12.483c6.163,3.906,13.536,5.962,22.116,6.158v4.21   c0,1.008,0.49,1.88,1.48,2.634c0.989,0.754,2.171,1.126,3.554,1.126c1.278,0,2.434-0.372,3.476-1.126   c1.033-0.754,1.549-1.625,1.549-2.634v-4.66c8.58-1.4,15.383-4.807,20.417-10.221c5.026-5.414,7.547-12.63,7.547-21.657   c0-4.817-0.771-9.076-2.294-12.786C808.723,969.508,806.403,966.424,803.303,963.967z M775.707,950.505   c-3.939-1.606-6.899-3.28-8.869-5.042c-1.979-1.753-2.959-4.132-2.959-7.137c0-5.718,3.94-9.223,11.828-10.525V950.505z    M783.403,1000.28v-26.16c3.554,1.596,6.286,3.456,8.212,5.561c1.918,2.105,2.88,4.866,2.88,8.273   C794.495,994.67,790.801,998.782,783.403,1000.28z"></path>		<path fill="#272844" d="M364.376,314.583h-71.475c-4.417,0-7.997,3.58-7.997,7.997c0,4.417,3.58,7.997,7.997,7.997h71.475   c4.417,0,7.997-3.58,7.997-7.997C372.373,318.163,368.793,314.583,364.376,314.583z"></path>		<path fill="#272844" d="M522.636,314.583h-71.475c-4.417,0-7.997,3.58-7.997,7.997c0,4.417,3.58,7.997,7.997,7.997h71.475   c4.417,0,7.997-3.58,7.997-7.997C530.633,318.163,527.053,314.583,522.636,314.583z"></path>		<path fill="#272844" d="M474.637,739.747H364.376c-4.417,0-7.997,3.58-7.997,7.997s3.58,7.997,7.997,7.997h110.261   c4.417,0,7.997-3.58,7.997-7.997S479.054,739.747,474.637,739.747z"></path>		<path fill="#272844" d="M474.637,797.267H364.376c-4.417,0-7.997,3.58-7.997,7.997s3.58,7.997,7.997,7.997h110.261   c4.417,0,7.997-3.58,7.997-7.997S479.054,797.267,474.637,797.267z"></path>		<path fill="#272844" d="M203.146,508.825h-22.167v-28.79c0-9.298-14.56-9.314-14.56,0v28.79h-22.17   c-4.651,0-7.085,3.664-7.085,7.283c0,3.616,2.434,7.277,7.085,7.277h22.17v24.623c0,4.653,3.664,7.087,7.285,7.087   c3.614,0,7.276-2.434,7.276-7.087v-24.623h22.167c4.655,0,7.088-3.664,7.088-7.283C210.234,512.487,207.8,508.825,203.146,508.825   z"></path>		<path fill="#272844" d="M142.72,1069.416h-22.167v-28.787c0-9.303-14.56-9.315-14.56,0v28.787h-22.17   c-4.651,0-7.088,3.664-7.088,7.285c0,3.614,2.437,7.276,7.088,7.276h22.17v24.622c0,4.655,3.664,7.088,7.282,7.088   c3.617,0,7.279-2.433,7.279-7.088v-24.622h22.167c4.655,0,7.088-3.664,7.088-7.285   C149.808,1073.077,147.375,1069.416,142.72,1069.416z"></path>		<path fill="#272844" d="M83.797,1027.652v-14.489H96.63c3.933,0,6.901-3.024,6.901-7.032s-2.968-7.029-6.901-7.029H83.797v-17.297   c0-3.936-3.024-6.901-7.035-6.901c-4.008,0-7.029,2.965-7.029,6.901v17.297H56.901c-3.933,0-6.901,3.024-6.901,7.032   s2.968,7.029,6.901,7.029h12.833v14.489c0,3.933,3.024,6.901,7.035,6.901C80.777,1034.553,83.797,1031.585,83.797,1027.652z"></path>	</g></g></svg>